<svg width="150" height="73" viewBox="0 0 150 73" fill="none" xmlns="http://www.w3.org/2000/svg">
<path d="M0.787565 26.5454C3.02895 21.7047 4.88471 22.0644 7.34571 21.7047C9.80671 21.3451 12.3869 23.3809 14.0699 26.5454C15.7529 29.71 13.8374 35.0971 13.4888 36.5666C13.1402 38.0361 13.354 39.8437 14.734 39.9635C15.855 40.0609 16.1956 36.0214 16.2839 35.9128C16.302 34.7195 16.3702 32.9952 16.5603 31.556C16.9754 28.4138 20.379 29.348 20.379 31.556C20.379 33.764 20.296 35.8022 20.9601 38.6897C21.6242 41.5771 23.1116 39.7014 23.2015 38.6897C23.2914 37.6779 23.2015 37.7555 22.5374 28.4138C21.8732 19.0721 26.7543 16.4536 29.3445 14.8258C35.1555 11.174 39.4446 14.2314 40.2194 14.8258C42.8759 16.864 43.1868 18.3077 42.8759 19.7514C41.8083 24.7083 39.7847 23.5314 37.8741 22.4202L37.812 22.3841C34.1594 20.261 32.424 21.5205 30.0087 23.5731C27.5933 25.6256 28.1848 27.4511 27.5182 31.556C26.8516 35.6609 28.1705 40.299 28.2654 44.4646C28.3602 48.6301 28.4928 51.7086 28.2654 52.8721C27.1862 58.3922 24.9448 58.1375 23.7826 58.3922C21.3752 58.92 20.1299 56.6088 19.7979 55.0802C19.4658 53.5515 20.2027 47.5421 19.7979 46.248C18.4696 42.0018 17.3074 44.9741 17.3074 46.248C17.3074 47.5219 17.3905 52.1927 16.9754 54.0611C16.5603 55.9294 15.4582 56.4829 13.4888 56.6088C9.50409 56.8636 9.08901 53.7214 8.50791 51.0887C7.92681 48.456 8.93281 45.11 9.08901 41.5771C9.24521 38.0443 9.78138 35.5695 9.33805 32.9997C8.89472 30.4299 9.23664 29.0725 8.00982 28.4138C6.783 27.7551 6.11099 27.4018 5.6024 28.159C5.09381 28.9162 5.75635 29.9504 6.26652 30.2821C6.77668 30.6138 6.90554 30.4303 7.34571 31.556C7.78587 32.6817 6.44295 34.5617 4.52321 35.0379C2.60348 35.5141 0.899785 33.989 0.206525 31.9806C-0.486735 29.9723 0.787565 26.5454 0.787565 26.5454Z" fill="white"/>
<path d="M36.325 54.8203C33.8117 58.8744 30.1629 56.6852 29.1899 54.2527C28.6944 53.014 30.9737 49.3066 30.9737 44.3605C30.9737 39.4145 28.9146 36.1302 29.5142 34.6306C30.736 31.575 35.2711 31.0629 36.325 34.6306C36.8441 36.3879 35.1596 40.5722 35.3522 44.6038C35.5507 48.757 37.6003 52.7631 36.325 54.8203Z" fill="white"/>
<circle cx="32.9197" cy="27.0087" r="3.40549" fill="white"/>
<path d="M39.0821 39.982C39.1632 35.1981 38.3524 30.4142 37.947 27.6574C37.5416 24.9006 41.3525 23.9276 42.4066 23.8465C43.4606 23.7654 46.8661 23.0356 45.4066 27.6574C43.9471 32.2791 43.7039 39.982 43.7039 41.6848C43.7039 43.3875 44.2715 46.9552 44.5958 47.766C44.9201 48.5768 46.2985 49.3066 48.1635 49.712C50.0284 50.1174 53.0284 48.739 55.0555 48.5768C57.0826 48.4147 57.9745 52.5499 56.515 54.2527C55.0555 55.9554 55.7042 56.2798 51.9744 56.2798C48.2445 56.2798 47.3526 55.3878 45.4066 55.4689C43.4606 55.55 42.4876 55.9554 40.9471 56.2798C39.4065 56.6041 38.3524 55.4689 37.947 53.6851C37.5416 51.9013 39.0011 44.766 39.0821 39.982Z" fill="white"/>
<path d="M50.7702 22.1351C52.886 21.8389 54.354 22.1442 55.6003 22.8773C56.8055 23.5864 57.7783 24.6895 58.902 25.85C60.1448 27.1335 60.9345 28.3793 61.4518 29.7582C61.9659 31.1284 62.2025 32.608 62.3649 34.3402C62.68 37.7002 62.1959 40.2044 60.7682 42.892C60.3785 43.6255 59.7216 44.3099 58.9538 44.9173C58.1812 45.5285 57.2689 46.0835 56.3337 46.5511C54.5986 47.4187 52.7067 48.0248 51.4138 48.097L51.1638 48.1039C50.0245 48.1039 49.0167 48.1123 48.195 47.7718C47.3128 47.4063 46.711 46.6794 46.237 45.43C45.718 44.0618 46.1609 42.7857 46.6022 41.3734C47.0537 39.9288 47.5801 38.1685 47.5016 35.6185C47.4212 33.0039 47.1796 30.5878 46.9577 28.7621C46.8468 27.8494 46.7413 27.0849 46.6628 26.516C46.6236 26.2326 46.591 25.9943 46.568 25.8119C46.5468 25.6428 46.529 25.4858 46.529 25.3871C46.529 25.1767 46.4504 24.443 47.0231 23.7269C47.5858 23.0236 48.6909 22.4262 50.7702 22.1351ZM53.943 27.7289C53.6099 27.7681 53.3736 27.7818 53.1657 27.7992C52.9746 27.8152 52.7659 27.836 52.5729 27.9115C52.3553 27.9968 52.1956 28.134 52.0534 28.307C51.9229 28.4659 51.7879 28.6786 51.6296 28.9359C51.2071 29.6227 51.2352 30.5357 51.3151 31.3548C51.4019 32.244 51.5554 33.0808 51.5554 33.9017C51.5554 34.7456 51.5546 35.5844 51.6286 36.3138C51.7015 37.032 51.8534 37.7281 52.2136 38.2425C52.3605 38.4525 52.4267 38.5681 52.5446 38.7425C52.6443 38.89 52.7652 39.0521 52.9382 39.184C53.2982 39.4582 53.7624 39.5091 54.4069 39.5091C55.2117 39.5091 55.7611 39.1931 56.1481 38.6996C56.4993 38.2516 56.7101 37.6579 56.9011 37.1615C57.1338 36.5562 57.1971 35.9219 57.2077 35.3295C57.213 35.0324 57.2048 34.7373 57.196 34.4584C57.187 34.1754 57.1774 33.9109 57.1774 33.6576C57.1775 32.6818 57.3462 31.4962 56.9108 30.1029C56.6993 29.4262 56.404 28.781 55.9264 28.3285C55.4235 27.8521 54.7649 27.6322 53.943 27.7289Z" fill="white"/>
<path d="M63.4883 37.4685C63.6505 40.4686 61.5425 48.1715 62.0288 50.604C62.5152 53.0364 64.0561 53.604 67.056 53.6851C70.0559 53.7662 71.4346 51.0905 71.2723 49.5499C71.11 48.0093 67.7856 40.1442 67.9479 38.4415C68.1102 36.7387 67.9479 36.8198 69.0019 36.0901C70.0558 35.3603 70.4616 37.7117 72.2453 37.4685C74.029 37.2252 74.4344 36.0901 74.3535 33.9008C74.2725 31.7116 73.5427 30.3332 72.2453 30.4953C70.948 30.6575 69.4884 32.1981 68.3533 31.8737C67.2183 31.5494 67.056 30.7386 67.056 29.198C67.056 27.6574 67.7048 27.5763 68.3533 26.8466C69.0019 26.1168 71.2725 28.8737 73.5427 28.6304C75.8129 28.3872 75.4888 26.5223 75.1643 24.0087C74.8399 21.4951 74.3535 20.441 72.2453 20.3599C70.1372 20.2788 69.4073 21.4951 68.3533 21.4951C67.2994 21.4951 65.7925 21.0693 64.2992 21.4951C62.8058 21.9208 61.2991 22.7924 61.218 24.0087C61.1369 25.2249 63.3262 34.4684 63.4883 37.4685Z" fill="white"/>
<path d="M77.0291 34.4684C77.0291 30.7386 75.5696 23.1978 76.2183 21.8194C76.8669 20.441 77.1102 19.5491 80.2724 19.468C83.4347 19.3869 84.4077 20.6032 84.2455 22.4681C84.0833 24.333 81.1643 31.3061 81.1643 34.4684C81.1643 37.6306 80.2724 40.1442 81.1643 41.928C82.0562 43.7119 81.8941 44.6849 84.8131 44.3605C87.7321 44.0362 89.4348 42.7389 91.1376 43.0632C92.8403 43.3875 93.3268 45.2524 92.8403 46.9552C92.3538 48.6579 91.1376 50.8472 88.5429 50.8472C85.9482 50.8472 83.759 49.8742 81.8941 49.9553C80.0291 50.0364 78.3265 51.3337 77.0291 50.8472C75.7317 50.3607 74.9209 49.9553 74.5966 48.4958C74.2723 47.0363 77.0291 38.1982 77.0291 34.4684Z" fill="white"/>
<path d="M91.3811 22.4681C95.4112 22.4682 98.5157 26.7516 98.5159 32.0355C98.5159 37.3196 95.4346 42.0093 90.4075 41.4417C85.8152 40.9231 83.8402 39.3332 83.8401 32.6849C83.8401 27.4007 87.9756 22.4681 91.3811 22.4681ZM91.3 26.5218C89.8671 26.5218 88.7865 29.3634 88.7864 31.4681C88.7864 33.5728 89.8671 34.306 91.3 34.306C92.7328 34.3058 93.5696 33.5726 93.5696 31.4681C93.5695 29.3636 92.7327 26.5224 91.3 26.5218Z" fill="white"/>
<path d="M99.5702 30.171C99.4892 25.7114 96.7323 23.0357 95.5971 20.1167C94.462 17.1977 98.354 15.4139 100.219 15.4949C102.084 15.576 104.76 18.3329 104.435 20.6843C104.111 23.0357 103.381 29.0358 103.381 30.171C103.381 31.3062 103.219 31.8738 104.111 32.4413C105.003 33.0089 105.327 31.9548 105.651 31.3062C105.976 30.6575 105.084 28.7115 105.976 25.9547C106.868 23.1979 108.976 24.4952 109.543 25.5493C110.111 26.6033 109.706 30.9008 110.03 31.7116C110.354 32.5224 111.408 32.8468 111.976 31.7116C112.544 30.5764 111.408 25.5493 111.408 24.0898C111.408 22.6303 111.408 20.6843 111.976 18.9004C112.544 17.1166 113.922 14.6841 116.517 13.0625C119.111 11.4408 123.328 11.603 125.274 12.3327C127.22 13.0625 129.247 14.6841 129.166 16.6301C129.084 18.5761 128.841 20.1167 127.22 20.1167C125.598 20.1167 124.949 19.7924 123.328 19.3869C121.706 18.9815 121.138 18.9004 119.598 20.1167C118.057 21.3329 117.084 24.0898 116.517 25.5493C115.949 27.0088 115.787 33.8197 115.787 34.9549C115.787 36.0901 116.922 44.9281 116.517 45.9011C116.111 46.8741 114.246 49.3066 112.381 49.3066C110.516 49.3066 108.976 48.1715 108.895 46.9552C108.814 45.739 108.895 38.8469 108.327 38.1982C107.76 37.5496 107.111 36.9009 106.462 38.1982C105.814 39.4956 105.976 43.4686 105.976 45.9011C105.976 48.3336 103.381 48.658 102.246 48.4958C101.111 48.3336 99.5702 46.9552 99.0026 45.9011C98.4351 44.8471 99.0026 43.2254 99.0026 41.9281C99.0026 40.6307 99.6513 34.6306 99.5702 30.171Z" fill="white"/>
<path d="M124.382 24.9006C128.03 25.2249 130.301 25.8742 130.301 31.9553C130.057 36.3332 123.101 37.1955 122.679 39.5764C122.385 41.2303 123.652 41.8469 124.949 41.8469C126.766 40.9618 127.22 37.7121 129.49 37.7121C132.792 38.0427 131.903 42.7272 129.49 45.3332C127.756 47.2055 124.687 47.2794 124.382 47.2795C120.172 47.2795 116.76 42.2698 116.76 36.09C116.76 29.9103 120.172 24.9006 124.382 24.9006ZM125.367 29.299C124.531 28.9928 123.476 29.7703 123.013 31.0363C122.549 32.3024 122.852 33.5776 123.688 33.884C124.525 34.1903 125.579 33.4118 126.043 32.1457C126.506 30.8797 126.204 29.6054 125.367 29.299Z" fill="white"/>
<path d="M136.544 21.9817C139.22 21.5763 140.193 21.9003 141.896 22.9543C143.598 24.0084 144.976 25.5494 145.625 27.2522C146.274 28.955 146.193 32.7654 144.896 34.1438C143.598 35.5221 141.329 36.333 141.328 37.0627C141.328 37.7924 142.869 37.8738 143.599 39.009C144.328 40.1445 144.409 44.4409 145.625 44.8469C146.841 45.2523 147.814 43.9553 148.625 44.8469C149.436 45.7387 149.68 47.4412 149.437 48.2522C149.193 49.063 148.058 51.2529 146.842 51.9016C145.626 52.5502 143.112 51.7386 142.22 51.3332C141.328 50.9273 140.355 46.6303 140.03 45.7385C139.706 44.8458 140.031 40.6302 139.22 40.1438C138.409 39.6574 137.841 39.6575 137.517 40.6301C137.192 41.6031 138.085 45.1717 138.166 46.469C138.173 46.5309 138.887 52.7233 137.193 54.9016C135.49 57.0906 133.058 58.712 129.815 58.6311C126.571 58.55 124.95 57.1715 123.977 55.6311C123.004 54.0906 123.085 53.1989 123.977 51.9016C124.869 50.6043 127.3 51.3333 129.327 50.6848C131.354 50.0361 131.274 49.1444 132.328 47.3606C133.382 45.5766 133.301 38.3603 133.058 36.4953C132.815 34.6304 131.841 27.0086 131.841 25.549C131.841 24.0896 133.868 22.3871 136.544 21.9817ZM139.139 26.3596C138.064 26.3596 137.193 27.8488 137.193 29.6848C137.193 31.5207 138.064 33.009 139.139 33.009C140.213 33.0088 141.084 31.5205 141.084 29.6848C141.084 27.8489 140.213 26.3598 139.139 26.3596Z" fill="white"/>
<circle cx="18.8924" cy="9.08935" r="3.21925" transform="rotate(2.19987 18.8924 9.08935)" fill="white"/>
<circle cx="89.7752" cy="8.45675" r="4.44419" transform="rotate(2.19987 89.7752 8.45675)" fill="white"/>
<circle cx="119.587" cy="68.2698" r="4.44419" transform="rotate(2.19987 119.587 68.2698)" fill="white"/>
<circle cx="89.4246" cy="61.9453" r="3.59753" transform="rotate(2.19987 89.4246 61.9453)" fill="white"/>
<circle cx="142.384" cy="60.9029" r="2.65817" transform="rotate(2.19987 142.384 60.9029)" fill="white"/>
<circle cx="68.2734" cy="69.3356" r="2.65817" transform="rotate(2.19987 68.2734 69.3356)" fill="white"/>
<circle cx="96.9768" cy="51.0108" r="2.65817" transform="rotate(2.19987 96.9768 51.0108)" fill="white"/>
<circle cx="59.5163" cy="18.2532" r="2.65817" transform="rotate(2.19987 59.5163 18.2532)" fill="white"/>
<circle cx="52.499" cy="2.15448" r="2.07631" transform="rotate(2.19987 52.499 2.15448)" fill="white"/>
<circle cx="18.8577" cy="22.6766" r="1.83426" transform="rotate(2.19987 18.8577 22.6766)" fill="white"/>
<circle cx="9.03873" cy="14.8036" r="1.78508" transform="rotate(2.19987 9.03873 14.8036)" fill="white"/>
<circle cx="4.77126" cy="40.2127" r="2.28497" transform="rotate(2.19987 4.77126 40.2127)" fill="white"/>
<circle cx="18.4255" cy="61.0022" r="1.32905" transform="rotate(2.19987 18.4255 61.0022)" fill="white"/>
<circle cx="60.6007" cy="57.6087" r="2.14026" transform="rotate(2.19987 60.6007 57.6087)" fill="white"/>
<circle cx="75.451" cy="61.5939" r="1.29238" transform="rotate(2.19987 75.451 61.5939)" fill="white"/>
<circle cx="117.29" cy="54.1342" r="1.29238" transform="rotate(2.19987 117.29 54.1342)" fill="white"/>
<circle cx="106.749" cy="13.7548" r="1.29238" transform="rotate(2.19987 106.749 13.7548)" fill="white"/>
<circle cx="68.3158" cy="12.4575" r="1.29238" transform="rotate(2.19987 68.3158 12.4575)" fill="white"/>
<circle cx="138.209" cy="13.1061" r="1.29238" transform="rotate(2.19987 138.209 13.1061)" fill="white"/>
<circle cx="133.993" cy="16.836" r="2.33555" transform="rotate(2.19987 133.993 16.836)" fill="white"/>
<circle cx="148.211" cy="37.054" r="1.72405" transform="rotate(2.19987 148.211 37.054)" fill="white"/>
<circle cx="43.6937" cy="66.1617" r="4.44419" transform="rotate(2.19987 43.6937 66.1617)" fill="white"/>
</svg>
