<svg width="64" height="64" viewBox="0 0 64 64" fill="none" xmlns="http://www.w3.org/2000/svg">
<g clip-path="url(#clip0_355_11)">
<path d="M1.1729 19.0041C4.51093 12.1812 7.27464 12.6881 10.9397 12.1812C14.6048 11.6742 18.4474 14.5437 20.9538 19.0041C23.4603 23.4645 20.6076 31.0575 20.0884 33.1288C19.5692 35.2 19.8877 37.7479 21.9429 37.9168C23.6123 38.054 24.1195 32.3604 24.2511 32.2073C24.2781 30.5253 24.3796 28.095 24.6628 26.0664C25.2809 21.6375 30.3498 22.9542 30.3498 26.0664C30.3498 29.1787 30.2262 32.0515 31.2152 36.1213C32.2043 40.1911 34.4193 37.5473 34.5532 36.1213C34.6871 34.6952 34.5532 34.8046 33.5642 21.6375C32.5751 8.47049 39.8443 4.77981 43.7019 2.48545C52.3561 -2.66169 58.7437 1.64757 59.8976 2.48545C63.8538 5.35826 64.3169 7.39319 63.8538 9.42808C62.2638 16.4147 59.2501 14.7559 56.4047 13.1896L56.3123 13.1388C50.8725 10.1463 48.288 11.9216 44.691 14.8146C41.0939 17.7076 41.9748 20.2806 40.982 26.0664C39.9893 31.8523 41.9534 38.3897 42.0947 44.2609C42.236 50.1321 42.4335 54.4713 42.0947 56.1112C40.4875 63.8918 37.1495 63.5327 35.4187 63.8918C31.8334 64.6356 29.9789 61.3781 29.4844 59.2234C28.9899 57.0688 30.0873 48.5987 29.4844 46.7746C27.5063 40.7896 25.7755 44.9791 25.7755 46.7746C25.7755 48.5701 25.8991 55.1536 25.2809 57.787C24.6628 60.4205 23.0214 61.2006 20.0884 61.3781C14.1541 61.7372 13.536 57.3083 12.6706 53.5975C11.8052 49.8868 13.3034 45.1706 13.536 40.1911C13.7686 35.2116 14.5671 31.7235 13.9069 28.1014C13.2466 24.4792 13.7558 22.5659 11.9288 21.6375C10.1017 20.7091 9.10092 20.2112 8.34349 21.2784C7.58606 22.3457 8.57276 23.8034 9.33254 24.2709C10.0923 24.7385 10.2842 24.4798 10.9397 26.0664C11.5953 27.6531 9.59529 30.303 6.73629 30.9741C3.87729 31.6453 1.34002 29.4957 0.307572 26.665C-0.724879 23.8342 1.1729 19.0041 1.1729 19.0041Z" fill="white"/>
<ellipse cx="6.24189" cy="40.7896" rx="3.70893" ry="3.59101" fill="white"/>
<ellipse cx="27.5064" cy="14.9343" rx="3.2144" ry="3.11221" fill="white"/>
<ellipse cx="48.771" cy="25.9467" rx="5.68702" ry="5.50622" fill="white"/>
<ellipse cx="57.9195" cy="48.211" rx="2.96714" ry="2.87281" fill="white"/>
<ellipse cx="13.1651" cy="2.72487" rx="1.97809" ry="1.91521" fill="white"/>
</g>
<defs>
<clipPath id="clip0_355_11">
<rect width="64" height="64" fill="white"/>
</clipPath>
</defs>
</svg>
